<svg width="124" height="31" viewBox="0 0 124 31" fill="none" xmlns="http://www.w3.org/2000/svg">
<g clip-path="url(#clip0_274_982)">
<path d="M7.89221 7.28188H0V1.07495H23.0723V7.28188H15.1445V30.6186H8.03441L7.89221 7.28188Z" fill="#1A1A2E"/>
<path d="M40.2787 18.5514V30.6185H34.164L33.9151 28.9888C32.4178 30.2938 30.4839 31.0212 28.4759 31.0346C27.5807 31.1272 26.6755 31.0281 25.8237 30.7442C24.9718 30.4603 24.1937 29.9984 23.5437 29.3909C22.8938 28.7833 22.3876 28.0447 22.0606 27.2266C21.7335 26.4085 21.5935 25.5307 21.6502 24.6543C21.6502 20.7013 24.2099 18.2393 30.1824 18.2393H33.7374C33.7374 16.0201 32.742 15.1185 30.1824 15.1185C28.3899 15.1532 26.6377 15.6432 25.0986 16.5402L22.5034 11.963C25.1022 10.6957 27.9535 9.99743 30.8578 9.91719C37.1147 9.88251 40.2787 11.8937 40.2787 18.5514ZM33.7374 24.0302V21.9149H30.5734C28.8314 21.9149 27.8716 22.7472 27.8716 24.1689C27.8716 25.5906 28.7248 26.3534 30.289 26.3534C32.5998 26.3534 33.7374 24.8971 33.7374 24.0302V24.0302Z" fill="#1A1A2E"/>
<path d="M44.4737 0H51.0505V17.5805L57.2363 10.4027H64.9508L57.8407 18.5168L64.9508 30.7573H57.5918L52.9347 22.7472L50.8372 25.0011V30.7573H44.2604L44.4737 0Z" fill="#1A1A2E"/>
<path d="M86.0675 22.1577H71.8474C72.087 23.2355 72.7294 24.1877 73.6495 24.8287C74.5696 25.4698 75.7014 25.7537 76.8244 25.6253C77.7476 25.613 78.6579 25.4122 79.4968 25.036C80.3356 24.6597 81.0843 24.1163 81.6948 23.4407L85.5342 27.255C84.3842 28.5391 82.9446 29.5457 81.3285 30.1955C79.7123 30.8453 77.9637 31.1207 76.22 31C73.349 31.023 70.5863 29.9326 68.5395 27.9687C66.4927 26.0048 65.3296 23.3283 65.306 20.5279C65.2825 17.7276 66.4004 15.0328 68.4138 13.0364C70.4273 11.04 73.1713 9.90552 76.0423 9.88253C77.4293 9.85576 78.807 10.1101 80.088 10.6294C81.3691 11.1487 82.5257 11.9217 83.4847 12.8995C84.4437 13.8773 85.1843 15.0385 85.6594 16.3099C86.1346 17.5812 86.3341 18.9348 86.2453 20.2852C86.2097 20.8054 86.1031 21.7416 86.0675 22.1577ZM71.8474 18.3087H79.7751C79.6617 17.4047 79.2114 16.573 78.5099 15.972C77.8085 15.3709 76.9048 15.0425 75.9712 15.0492C75.0013 15.0048 74.0493 15.314 73.3002 15.9164C72.5511 16.5189 72.0586 17.3716 71.9184 18.3087H71.8474Z" fill="#1A1A2E"/>
<path d="M107.149 18.5514V30.6185H101.105L100.821 28.9888C99.3094 30.2934 97.3647 31.0202 95.3463 31.0346C94.4511 31.1272 93.5459 31.0281 92.694 30.7442C91.8421 30.4603 91.0641 29.9984 90.4141 29.3909C89.7641 28.7833 89.258 28.0447 88.9309 27.2266C88.6039 26.4085 88.4639 25.5307 88.5206 24.6543C88.5206 20.7013 91.0802 18.2393 97.0527 18.2393H100.786C100.786 16.0201 99.7901 15.1185 97.2305 15.1185C95.4387 15.158 93.6877 15.6476 92.1467 16.5402L89.5515 11.963C92.1503 10.6957 95.0016 9.99743 97.9059 9.91719C103.878 9.88251 107.149 11.8937 107.149 18.5514ZM100.643 24.0302V21.9149H97.5504C95.8084 21.9149 94.813 22.7472 94.813 24.1689C94.813 25.5906 95.6662 26.3534 97.2305 26.3534C99.4701 26.3534 100.643 24.8971 100.643 24.0302V24.0302Z" fill="#1A1A2E"/>
<path d="M112.019 24.273V15.5001H109.673V10.4027H112.019V3.74503L118.703 3.08618V10.4027H123.751V15.6387H118.881V23.1287C118.881 24.481 119.201 25.4173 120.48 25.4173C121.181 25.4088 121.872 25.2552 122.507 24.9665L124.178 29.7517C122.41 30.7489 120.387 31.2303 118.347 31.1388C114.579 31.0001 112.019 28.8155 112.019 24.273Z" fill="#1A1A2E"/>
</g>
<defs>
<clipPath id="clip0_274_982">
<rect width="124" height="31" fill="white"/>
</clipPath>
</defs>
</svg>
