<svg width="147" height="35" viewBox="0 0 147 35" fill="none" xmlns="http://www.w3.org/2000/svg">
<path d="M73.5079 11.527H68.5435V7.58594H83.0566V11.527H78.0698V26.3447H73.5974L73.5079 11.527Z" fill="white"/>
<path d="M93.8804 18.6828V26.3448H90.0341L89.8775 25.31C88.9357 26.1386 87.7192 26.6005 86.4561 26.609C85.893 26.6678 85.3236 26.6049 84.7877 26.4246C84.2519 26.2443 83.7624 25.9511 83.3536 25.5653C82.9448 25.1795 82.6263 24.7106 82.4206 24.1911C82.2149 23.6717 82.1268 23.1143 82.1625 22.5578C82.1625 20.0479 83.7726 18.4846 87.5295 18.4846H89.7657C89.7657 17.0755 89.1396 16.5031 87.5295 16.5031C86.402 16.5251 85.2998 16.8362 84.3317 17.4058L82.6992 14.4995C84.3339 13.6948 86.1275 13.2514 87.9544 13.2005C91.8902 13.1785 93.8804 14.4555 93.8804 18.6828ZM89.7657 22.1615V20.8185H87.7755C86.6797 20.8185 86.0759 21.3469 86.0759 22.2496C86.0759 23.1523 86.6126 23.6367 87.5966 23.6367C89.0501 23.6367 89.7657 22.712 89.7657 22.1615Z" fill="white"/>
<path d="M96.519 6.90381H100.656V18.0665L104.547 13.509H109.4L104.927 18.661L109.4 26.4331H104.905L101.975 21.3471L100.656 22.7782V26.4331H96.519V6.90381Z" fill="white"/>
<path d="M122.683 20.9725H113.738C113.889 21.6569 114.293 22.2615 114.872 22.6685C115.45 23.0755 116.162 23.2558 116.869 23.1743C117.449 23.1665 118.022 23.039 118.55 22.8001C119.077 22.5612 119.548 22.2162 119.932 21.7872L122.347 24.2091C121.624 25.0244 120.718 25.6635 119.702 26.0761C118.685 26.4887 117.585 26.6636 116.489 26.5869C115.594 26.5942 114.707 26.4279 113.878 26.0977C113.049 25.7674 112.295 25.2797 111.657 24.6622C111.02 24.0448 110.512 23.3098 110.163 22.4991C109.814 21.6885 109.631 20.8182 109.623 19.9377C109.616 19.0573 109.785 18.1841 110.12 17.368C110.456 16.5518 110.951 15.8087 111.578 15.181C112.205 14.5534 112.952 14.0535 113.775 13.7099C114.598 13.3663 115.482 13.1857 116.377 13.1785C117.249 13.1615 118.116 13.3229 118.922 13.6527C119.727 13.9824 120.455 14.4732 121.058 15.0941C121.661 15.7149 122.127 16.4523 122.426 17.2595C122.725 18.0667 122.851 18.9262 122.795 19.7836C122.772 20.1139 122.705 20.7083 122.683 20.9725ZM113.738 18.5286H118.725C118.653 17.9547 118.37 17.4266 117.929 17.0449C117.488 16.6633 116.919 16.4547 116.332 16.459C115.722 16.4309 115.123 16.6271 114.652 17.0097C114.181 17.3922 113.871 17.9336 113.783 18.5286H113.738Z" fill="white"/>
<path d="M135.944 18.6828V26.3448H132.142L131.963 25.31C131.013 26.1384 129.789 26.5998 128.52 26.609C127.956 26.6678 127.387 26.6049 126.851 26.4246C126.315 26.2443 125.826 25.9511 125.417 25.5653C125.008 25.1795 124.69 24.7106 124.484 24.1911C124.278 23.6717 124.19 23.1143 124.226 22.5578C124.226 20.0479 125.836 18.4846 129.593 18.4846H131.829C131.829 17.0755 131.203 16.5031 129.593 16.5031C128.466 16.5281 127.364 16.839 126.395 17.4058L124.763 14.4995C126.397 13.6948 128.191 13.2514 130.018 13.2005C133.887 13.1785 135.944 14.4555 135.944 18.6828ZM131.852 22.1615V20.8185H129.906C128.81 20.8185 128.184 21.3469 128.184 22.2496C128.184 23.1523 128.721 23.6367 129.705 23.6367C131.114 23.6367 131.852 22.712 131.852 22.1615Z" fill="white"/>
<path d="M139.007 22.3156V16.7451H137.531V13.5085H139.007V9.28114L143.323 8.86279V13.5085H146.499V16.8332H143.323V21.589C143.323 22.4477 143.524 23.0422 144.329 23.0422C144.77 23.0369 145.205 22.9393 145.604 22.756L146.655 25.7944C145.543 26.4276 144.271 26.7333 142.988 26.6751C140.617 26.5871 139.007 25.2 139.007 22.3156Z" fill="white"/>
<path d="M44.52 0H8.48C6.23096 0 4.07404 0.872824 2.48373 2.42646C0.893426 3.9801 0 6.08728 0 8.28445V26.2341C0 28.4313 0.893426 30.5385 2.48373 32.0921C4.07404 33.6457 6.23096 34.5186 8.48 34.5186H44.52C46.769 34.5186 48.926 33.6457 50.5163 32.0921C52.1066 30.5385 53 28.4313 53 26.2341V8.28445C53 6.08728 52.1066 3.9801 50.5163 2.42646C48.926 0.872824 46.769 0 44.52 0ZM48.0533 8.28445V17.6045H33.2133V4.8326H44.52C44.984 4.8326 45.4435 4.92188 45.8721 5.09535C46.3008 5.26882 46.6903 5.52309 47.0184 5.84363C47.3465 6.16416 47.6068 6.54469 47.7844 6.96349C47.9619 7.38228 48.0533 7.83115 48.0533 8.28445ZM4.94667 26.2341V8.28445C4.94667 7.36896 5.31893 6.49097 5.98156 5.84363C6.64419 5.19628 7.5429 4.8326 8.48 4.8326H28.2667V29.686H8.48C7.5429 29.686 6.64419 29.3223 5.98156 28.6749C5.31893 28.0276 4.94667 27.1496 4.94667 26.2341ZM44.52 29.686H33.2133V22.4371H48.0533V26.2341C48.0533 27.1496 47.6811 28.0276 47.0184 28.6749C46.3558 29.3223 45.4571 29.686 44.52 29.686Z" fill="white"/>
</svg>
